# xmcd CD database file
#
# Track frame offsets:
#	150
#	13695
#	30140
#	41737
#	53194
#	71496
#	85485
#	98415
#	105139
#	121387
#	138979
#	153161
#	168393
#	194995
#
# Disc length: 2804 seconds
#
# Revision: 2
# Processed by: cddbd v1.4b41PL1 Copyright (c) Steve Scherf et al.
# Submitted via: Feurio! 1.60 - http://www.feurio.com
#
DISCID=9c0af20e,ad0af20e
DTITLE=Wainwright III - Loudon - History
DYEAR=1900
DGENRE=
TTITLE0=People IN Love
TTITLE1=Men
TTITLE2=The Picture
TTITLE3=When I'm At Your House
TTITLE4=The Doctor
TTITLE5=Hitting You
TTITLE6=I'D Rather Be Lonley
TTITLE7=Between
TTITLE8=Talking New Bob Dylan
TTITLE9=So Many Songs
TTITLE10=4 X 10
TTITLE11=A Father and A Son
TTITLE12=Sometimes I Forget
TTITLE13=Handful Of Lust
EXTD=
EXTT0=
EXTT1=
EXTT2=
EXTT3=
EXTT4=
EXTT5=
EXTT6=
EXTT7=
EXTT8=
EXTT9=
EXTT10=
EXTT11=
EXTT12=
EXTT13=
PLAYORDER=
